<svg xmlns="http://www.w3.org/2000/svg" xmlns:xlink="http://www.w3.org/1999/xlink" preserveAspectRatio="xMidYMid" width="16" height="21" viewBox="0 0 16 21">
  <defs>
    <style>
      .cls-1 {
        fill: #f9f9f9;
        fill-rule: evenodd;
      }
    </style>
  </defs>
  <path d="M8.428,20.801 C8.318,20.919 8.164,20.989 8.003,20.989 C7.840,20.989 7.686,20.919 7.573,20.801 C7.266,20.464 -0.000,12.547 -0.000,8.175 C-0.000,3.664 3.588,-0.002 8.003,-0.002 C12.414,-0.002 16.001,3.664 16.001,8.175 C16.001,12.547 8.738,20.464 8.428,20.801 ZM8.003,1.196 C4.237,1.196 1.175,4.328 1.175,8.172 C1.175,11.201 5.758,16.983 8.003,19.504 C10.244,16.983 14.830,11.201 14.830,8.172 C14.830,4.328 11.764,1.196 8.003,1.196 ZM8.003,10.733 C6.136,10.733 4.618,9.182 4.618,7.274 C4.618,5.367 6.136,3.816 8.003,3.816 C9.866,3.816 11.386,5.367 11.386,7.274 C11.386,9.182 9.869,10.733 8.003,10.733 ZM8.003,5.017 C6.781,5.017 5.790,6.030 5.790,7.274 C5.790,8.521 6.781,9.535 8.003,9.535 C9.220,9.535 10.212,8.521 10.212,7.274 C10.212,6.030 9.220,5.017 8.003,5.017 Z" class="cls-1"/>
</svg>
