<svg xmlns="http://www.w3.org/2000/svg" xmlns:xlink="http://www.w3.org/1999/xlink" preserveAspectRatio="xMidYMid" width="18" height="18" viewBox="0 0 18 18">
  <defs>
    <style>
      .cls-1 {
        fill: #f9f9f9;
        fill-rule: evenodd;
      }
    </style>
  </defs>
  <path d="M9.000,1.125 C13.342,1.125 16.875,4.658 16.875,9.000 C16.875,13.341 13.342,16.875 9.000,16.875 C4.658,16.875 1.125,13.341 1.125,9.000 C1.125,4.658 4.658,1.125 9.000,1.125 M9.000,-0.001 C4.030,-0.001 0.000,4.029 0.000,9.000 C0.000,13.970 4.030,18.000 9.000,18.000 C13.970,18.000 18.000,13.970 18.000,9.000 C18.000,4.029 13.970,-0.001 9.000,-0.001 L9.000,-0.001 ZM14.017,12.009 L13.967,11.855 C13.848,11.501 13.457,11.132 13.097,11.033 L11.766,10.670 C11.406,10.572 10.892,10.703 10.627,10.969 L10.146,11.450 C8.397,10.976 7.025,9.604 6.552,7.855 L7.033,7.374 C7.297,7.110 7.429,6.596 7.331,6.234 L6.969,4.904 C6.871,4.543 6.499,4.152 6.146,4.034 L5.994,3.983 C5.639,3.864 5.133,3.985 4.869,4.249 L4.148,4.970 C4.020,5.097 3.938,5.463 3.938,5.464 C3.913,7.751 4.810,9.955 6.427,11.573 C8.040,13.185 10.235,14.081 12.514,14.061 C12.526,14.061 12.903,13.981 13.032,13.852 L13.752,13.131 C14.016,12.869 14.135,12.362 14.017,12.009 L14.017,12.009 Z" class="cls-1"/>
</svg>
